<?xml version="1.0" encoding="utf-8"?>
<!-- Generator: Adobe Illustrator 25.2.3, SVG Export Plug-In . SVG Version: 6.00 Build 0)  -->
<svg version="1.1" xmlns="http://www.w3.org/2000/svg" xmlns:xlink="http://www.w3.org/1999/xlink" x="0px" y="0px"
	 viewBox="0 0 130 130" enable-background="new 0 0 130 130" xml:space="preserve">
<title>Money euro</title>
<desc>SVG outlined icon for use in PowerPoint and design programs. Colour and scale can be adjusted once inserted in the PowerPoint slide.</desc>
<metadata><?xpacket begin="﻿" id="W5M0MpCehiHzreSzNTczkc9d"?>
<x:xmpmeta xmlns:x="adobe:ns:meta/" x:xmptk="XMP Core 5.6.0">
   <rdf:RDF xmlns:rdf="http://www.w3.org/1999/02/22-rdf-syntax-ns#">
      <rdf:Description rdf:about=""
            xmlns:xmpMM="http://ns.adobe.com/xap/1.0/mm/"
            xmlns:xmp="http://ns.adobe.com/xap/1.0/"
            xmlns:dc="http://purl.org/dc/elements/1.1/"
            xmlns:fwr="http://ns.fotoware.com/iptcxmp-reserved/1.0/"
            xmlns:skyview="http://ns.fotoware.com/skyview/1.0/">
         <xmpMM:DocumentID>xmp.did:68A3624C196C46B3 91D551C5426E619A</xmpMM:DocumentID>
         <xmpMM:OriginalDocumentID>xmp.did:68A3624C196C46B3 91D551C5426E619A</xmpMM:OriginalDocumentID>
         <xmpMM:InstanceID>xmp.iid:7006EC989EAA4AA4 A35082BFFC1BEC65</xmpMM:InstanceID>
         <xmp:CreateDate>2024-11-05T08:12:40+01:00</xmp:CreateDate>
         <xmp:ModifyDate>2024-11-05T08:12:40+01:00</xmp:ModifyDate>
         <xmp:MetadataDate>2024-04-24T12:49:40+01:00</xmp:MetadataDate>
         <xmp:CreatorTool>FotoWare FotoStation</xmp:CreatorTool>
         <xmp:XMPFileStamps>
            <rdf:Seq>
               <rdf:li>2024-11-05T08:12:40+01:00</rdf:li>
            </rdf:Seq>
         </xmp:XMPFileStamps>
         <dc:title>
            <rdf:Alt>
               <rdf:li xml:lang="x-default">Money euro</rdf:li>
            </rdf:Alt>
         </dc:title>
         <dc:subject>
            <rdf:Bag>
               <rdf:li>penger</rdf:li>
               <rdf:li>valuta</rdf:li>
               <rdf:li>curency</rdf:li>
               <rdf:li>eur</rdf:li>
            </rdf:Bag>
         </dc:subject>
         <dc:rights>
            <rdf:Alt>
               <rdf:li xml:lang="x-default">Equinor</rdf:li>
            </rdf:Alt>
         </dc:rights>
         <dc:description>
            <rdf:Alt>
               <rdf:li xml:lang="x-default">SVG outlined icon for use in PowerPoint and design programs. Colour and scale can be adjusted once inserted in the PowerPoint slide.</rdf:li>
            </rdf:Alt>
         </dc:description>
         <fwr:DocumentText> </fwr:DocumentText>
         <fwr:UniqueId>CBB2AEDFF95648EF B533DCF3B6EF0411</fwr:UniqueId>
         <fwr:History>
            <rdf:Seq>
               <rdf:li>A=5021 N=0 E=FWW D=2023-09-19 T=10:53:45 U=15002 V=action</rdf:li>
               <rdf:li>A=5000 N=0 E=FWW D=2024-04-24 T=11:49:40 U=15002 V=action</rdf:li>
            </rdf:Seq>
         </fwr:History>
         <fwr:UploadInfo>
            <rdf:Description>
               <fwr:UploadTime>2022-12-07T07:30:12.789317Z</fwr:UploadTime>
            </rdf:Description>
         </fwr:UploadInfo>
         <skyview:CustomField30>Icons</skyview:CustomField30>
      </rdf:Description>
   </rdf:RDF>
</x:xmpmeta>
                                                                                                    
                                                                                                    
                                                                                                    
                                                                                                    
                                                                                                    
                                                                                                    
                                                                                                    
                                                                                                    
                                                                                                    
                                                                                                    
                                                                                                    
                                                                                                    
                                                                                                    
                                                                                                    
                                                                                 
<?xpacket end="w"?></metadata>
<g id="guides">
</g>
<g id="artwork">
	<g>
		<g>
			<path fill="#FF1243" d="M35.671,102.619c-16.108,0-28.878-2.031-29.059-2.061c-0.726-0.118-1.26-0.745-1.26-1.48V47.585
				c0-0.44,0.193-0.857,0.528-1.143c0.335-0.285,0.781-0.408,1.212-0.338c0.252,0.041,25.6,4.065,49.733,0.65
				c24.575-3.479,49.47-0.253,49.719-0.22c0.746,0.099,1.303,0.735,1.303,1.487v51.492c0,0.433-0.187,0.844-0.512,1.128
				c-0.325,0.285-0.755,0.417-1.186,0.359c-0.246-0.034-24.749-3.204-48.903,0.217C49.924,102.254,42.498,102.619,35.671,102.619z
				 M8.352,97.783c5.419,0.759,27.408,3.446,48.473,0.464c20.881-2.956,41.993-1.071,48.021-0.418V49.354
				c-5.391-0.6-26.626-2.6-47.601,0.371c-20.916,2.961-42.687,0.44-48.894-0.407V97.783z"/>
		</g>
		<g>
			<path fill="#FF1243" d="M114.965,92.396c-0.829,0-1.5-0.672-1.5-1.5v-50.16c-5.391-0.599-26.628-2.6-47.601,0.371
				c-24.597,3.481-50.377-0.618-50.634-0.66c-0.818-0.133-1.373-0.903-1.24-1.721s0.905-1.37,1.721-1.24
				c0.253,0.041,25.602,4.068,49.733,0.65c24.575-3.48,49.47-0.252,49.719-0.22c0.746,0.099,1.303,0.735,1.303,1.487v51.493
				C116.465,91.724,115.794,92.396,114.965,92.396z"/>
		</g>
		<g>
			<path fill="#FF1243" d="M123.583,83.777c-0.829,0-1.5-0.672-1.5-1.5v-50.16c-5.39-0.6-26.627-2.599-47.6,0.371
				c-24.596,3.483-50.376-0.618-50.634-0.659c-0.818-0.133-1.373-0.903-1.24-1.721s0.904-1.375,1.721-1.24
				c0.252,0.041,25.599,4.066,49.733,0.649c24.574-3.479,49.469-0.253,49.718-0.22c0.746,0.099,1.303,0.735,1.303,1.487v51.493
				C125.083,83.105,124.412,83.777,123.583,83.777z"/>
		</g>
		<g>
			<path fill="#FF1243" d="M98.058,57.158c-0.062,0-0.125-0.004-0.188-0.012c-3.397-0.425-15.912-1.075-16.038-1.082
				c-0.827-0.043-1.463-0.748-1.42-1.576c0.042-0.828,0.748-1.474,1.576-1.42c0.519,0.027,12.75,0.663,16.255,1.101
				c0.822,0.103,1.405,0.853,1.302,1.674C99.449,56.603,98.803,57.158,98.058,57.158z"/>
		</g>
		<g>
			<path fill="#FF1243" d="M28.94,94.557c-5.377,0-13.766-0.924-14.181-0.97c-0.824-0.092-1.417-0.834-1.325-1.657
				c0.091-0.823,0.839-1.408,1.656-1.325c0.116,0.014,11.678,1.285,16.057,0.871c0.816-0.083,1.557,0.525,1.635,1.351
				s-0.526,1.558-1.351,1.636C30.733,94.528,29.883,94.557,28.94,94.557z"/>
		</g>
	</g>
	<g>
		<path fill="#FF1243" d="M65.034,83.076c-0.92,0.362-2.175,0.558-3.709,0.558c-4.185,0-7.615-2.231-8.981-6.081h-2.148
			c-0.335,0-0.529-0.195-0.529-0.53v-1.868c0-0.307,0.194-0.502,0.529-0.502h1.534c-0.027-0.363-0.056-0.726-0.056-1.116v-0.502
			h-1.479c-0.335,0-0.529-0.195-0.529-0.502v-1.869c0-0.335,0.194-0.53,0.529-0.53h1.925c1.228-4.239,4.798-6.694,9.205-6.694
			c1.534,0,2.789,0.195,3.682,0.558c0.307,0.111,0.391,0.334,0.279,0.641l-0.726,2.12c-0.111,0.308-0.307,0.419-0.642,0.335
			c-0.67-0.195-1.423-0.307-2.231-0.307c-2.566,0-4.658,1.144-5.69,3.347h6.89c0.391,0,0.53,0.224,0.419,0.586l-0.754,1.897
			c-0.111,0.278-0.334,0.418-0.613,0.418H55.3v0.502c0,0.391,0.028,0.753,0.056,1.116h6.248c0.391,0,0.53,0.223,0.419,0.585
			l-0.753,1.897c-0.112,0.278-0.335,0.418-0.614,0.418h-4.323c1.116,1.785,3.04,2.733,5.355,2.733c0.809,0,1.562-0.111,2.231-0.278
			c0.335-0.112,0.53,0,0.642,0.307l0.726,2.12C65.397,82.741,65.313,82.964,65.034,83.076z"/>
	</g>
</g>
</svg>
