<svg width="277" height="181" viewBox="0 0 277 181" fill="none" xmlns="http://www.w3.org/2000/svg">
<path d="M228.014 174.657C223.909 174.657 220.166 178.793 220.166 178.793L288.185 178.565V173.754C277.856 173.754 275.904 160.213 267.716 160.213C259.529 160.213 257.274 169.66 254.176 169.66C251.078 169.66 250.137 167.393 245.099 167.393C240.06 167.393 237.583 175.959 234.652 175.959C231.72 175.959 232.119 174.657 228.014 174.657Z" fill="#037078"/>
<path d="M276.933 178.357C300.274 162.823 316.769 166.964 323.787 178.357H276.933Z" fill="#0C3144"/>
<path d="M316.415 95.6318C316.415 127.321 295.765 153.01 270.291 153.01C255.793 153.01 244.455 139.378 215.924 150.474C202.69 140.355 191.832 108.017 191.832 94.3637C191.832 62.6748 250.161 36.0349 270.291 38.2538C290.421 40.4728 316.415 63.9428 316.415 95.6318Z" fill="#037078"/>
<path d="M101.272 156.062C111.77 156.062 142.79 146.517 142.79 146.517C142.79 146.517 165.863 138.687 181.2 119.591C200.774 95.2197 212.249 56.3805 195.686 33.9371C188.405 24.0724 179.228 10.8662 169.864 5.59583C161.836 1.07784 151.482 -0.645386 143.014 0.213156C124.666 2.07321 116.385 21.7695 105.09 26.736C93.7942 31.7026 73.9062 15.4294 52.9837 42.6919C32.0613 69.9543 51.164 84.4792 54.0274 97.3641C56.8908 110.249 51.1639 127.906 65.4804 140.791C79.7969 153.676 90.7732 156.062 101.272 156.062Z" fill="#459B9C"/>
<path d="M66.616 131.453C61.6854 153.628 44.5281 157.226 30.2577 154.053C15.9873 150.88 2.40505 136.509 7.33565 114.335C12.2662 92.1605 33.8426 70.5789 48.113 73.7519C62.3834 76.925 71.5466 109.279 66.616 131.453Z" fill="#00707B"/>
<path fill-rule="evenodd" clip-rule="evenodd" d="M64.0147 139.386C65.0763 137.056 65.9552 134.421 66.615 131.453C71.5456 109.279 62.3824 76.9251 48.112 73.752C46.8218 73.4651 45.472 73.3806 44.0801 73.4805C45.2594 78.6312 47.6021 83.1488 49.755 87.3003C51.6056 90.8689 53.3159 94.167 54.0264 97.3641C54.8891 101.246 54.9721 105.561 55.0583 110.049C55.2481 119.921 55.4539 130.627 64.0147 139.386Z" fill="#9CCCD6"/>
<path d="M246.835 93.2361C243.723 128.992 228.488 156.915 205.464 154.912C182.441 152.908 160.349 121.737 163.46 85.9812C166.572 50.2255 187.758 22.8638 210.781 24.8672C233.804 26.8706 249.946 57.4804 246.835 93.2361Z" fill="#9CCCD6"/>
<path d="M191.198 116.871C191.198 146.109 178.235 153.961 160.29 153.961C139.21 150.791 134.859 140.134 130.085 120.573C128.608 114.524 117.653 113.067 116.702 99.7528C115.751 86.4386 134.959 82.3638 137.941 74.0754C142.9 60.2908 146.071 49.032 157.278 49.032C175.224 49.032 191.198 87.6332 191.198 116.871Z" fill="#0C3144"/>
<path fill-rule="evenodd" clip-rule="evenodd" d="M170.863 56.2653C182.565 68.824 191.198 95.3776 191.198 116.871C191.198 129.979 188.592 138.788 184.101 144.519C170.723 132.114 161.362 110.09 163.46 85.9812C164.407 75.1019 167.027 64.9996 170.863 56.2653Z" fill="#459B9C"/>
<path d="M206.409 179.268V142.594M206.409 96.4939V124.257M206.409 142.594L215.835 133.168M206.409 142.594V124.257M206.409 124.257L197.326 115.174" stroke="#00707B" stroke-width="1.5"/>
<path d="M269.474 179.268V124.599M269.474 78.8423V107.291M269.474 107.291L285.069 93.0664M269.474 107.291V124.599M269.474 124.599L251.309 115.345" stroke="#D1EBF5" stroke-width="1.5"/>
<path opacity="0.4" d="M158.596 178.925V132.997M158.596 132.997L171.02 120.572M158.596 132.997L149.256 123.657" stroke="#FFFAF6" stroke-width="1.5"/>
<path d="M77.001 178H26.9219C31.7121 173.21 35.223 171.457 38.8973 172.545C42.5716 173.634 46.7902 164.516 53.7305 164.516C60.6708 164.516 59.31 172.817 64.6173 172.545C69.9246 172.273 77.8053 173.451 77.001 178Z" fill="#00707B"/>
<path d="M38.4623 177.925V146.392M38.4623 105.776V130.797M38.4623 130.797L50.1158 122.914M38.4623 130.797V146.392M38.4623 146.392L22.8672 134.567" stroke="#103346" stroke-width="1.5"/>
<path d="M112.791 178C103.537 161.806 79.4505 157.723 73.4629 178H112.791Z" fill="#0C3144"/>
<path d="M92.7865 178.754V143.279M92.7865 87.5824V129.055M92.7865 129.055L108.896 112.946M92.7865 129.055V143.279M92.7865 143.279L83.1895 133.682" stroke="#85B8BB" stroke-width="1.5"/>
<rect opacity="0.1" x="25.6582" y="178.568" width="294.198" height="1.90887" fill="#D9D9D9"/>
<path d="M81.7253 153.102C82.5126 156.874 82.5717 163.848 76.5097 161.565C75.25 157.55 79.4619 154.25 81.7253 153.102Z" fill="#00707B"/>
<path d="M263.89 153.702C264.508 156.661 264.554 162.133 259.798 160.341C258.81 157.191 262.114 154.602 263.89 153.702Z" fill="#10475C"/>
<path d="M257.264 154.376C259.501 155.579 263.044 158.508 259.32 160.597C256.76 159.529 256.883 156.005 257.264 154.376Z" fill="#10475C"/>
<path d="M238.479 144.723C238.533 148.415 239.938 154.946 245.127 151.543C245.464 147.526 240.836 145.323 238.479 144.723Z" fill="#10475C"/>
<path d="M265.323 142.775C265.27 146.466 263.864 152.998 258.676 149.594C258.339 145.577 262.967 143.374 265.323 142.775Z" fill="#10475C"/>
<path d="M245.115 159.868C245.526 162.656 247.243 167.458 250.829 164.362C250.681 161.289 246.958 160.085 245.115 159.868Z" fill="#10475C"/>
<path d="M246.166 140.398C246.577 143.186 248.294 147.988 251.88 144.893C251.732 141.819 248.009 140.616 246.166 140.398Z" fill="#10475C"/>
<path d="M254.048 138.105C254.749 140.834 255.024 145.926 250.52 144.46C249.466 141.569 252.433 139.019 254.048 138.105Z" fill="#10475C"/>
<path d="M81.8976 168.523C80.8064 165.475 77.7886 160.453 74.4476 164.748C75.307 168.177 79.7723 168.693 81.8976 168.523Z" fill="#00707B"/>
<path d="M74.4884 144.489C74.6306 147.072 73.9665 151.708 70.1725 149.581C69.7411 146.788 72.87 145.022 74.4884 144.489Z" fill="#00707B"/>
<path d="M64.6807 147.01C65.8631 149.311 68.7778 152.977 70.9778 149.224C69.9395 146.597 66.3471 146.653 64.6807 147.01Z" fill="#00707B"/>
<path d="M57.8479 149.62C60.7674 148.872 66.2143 148.578 64.6454 153.396C61.553 154.522 58.8252 151.348 57.8479 149.62Z" fill="#00707B"/>
<path d="M62.2963 159.169C65.8071 158.74 72.1974 159.199 69.6726 164.458C65.9057 165.292 63.1855 161.279 62.2963 159.169Z" fill="#00707B"/>
<path d="M70.2124 176.72V168.06M70.2124 148.575C70.2124 152.548 70.2124 155.609 70.2124 158.711M70.2124 168.06L77.3962 160.876M70.2124 168.06C70.2124 164.423 70.2124 161.55 70.2124 158.711M70.2124 158.711L64.4062 152.905" stroke="#97B4B2"/>
<path d="M255.85 177.82L254.415 166.41M251.561 143.717L253.103 155.981M253.103 155.981L259.525 149.026M253.103 155.981L253.761 161.208M253.761 161.208L244.822 151.477M253.761 161.208L254.415 166.41M254.415 166.41L259.934 160.054M254.415 166.41L249.927 164.138" stroke="#0C3144"/>
</svg>
